<svg width="41" height="40" viewBox="0 0 41 40" fill="none" xmlns="http://www.w3.org/2000/svg">
    <rect x="0.909302" y="0.5" width="39.0312" height="39" rx="19.5" stroke="white"/>
    <path d="M23.4272 17C24.7544 17 26.0271 17.4863 26.9655 18.3518C27.904 19.2174 28.4312 20.3913 28.4312 21.6154V27H25.0952V21.6154C25.0952 21.2074 24.9195 20.816 24.6067 20.5275C24.2939 20.239 23.8696 20.0769 23.4272 20.0769C22.9849 20.0769 22.5606 20.239 22.2478 20.5275C21.935 20.816 21.7593 21.2074 21.7593 21.6154V27H18.4233V21.6154C18.4233 20.3913 18.9505 19.2174 19.889 18.3518C20.8274 17.4863 22.1001 17 23.4272 17Z" fill="white"/>
    <path d="M15.421 18H12.4187V27H15.421V18Z" fill="white"/>
    <path d="M13.9199 15C14.7489 15 15.421 14.3284 15.421 13.5C15.421 12.6716 14.7489 12 13.9199 12C13.0908 12 12.4187 12.6716 12.4187 13.5C12.4187 14.3284 13.0908 15 13.9199 15Z" fill="white" stroke="white" stroke-linecap="round" stroke-linejoin="round"/>
</svg>
