<svg width="44" height="44" viewBox="0 0 44 44" fill="none" xmlns="http://www.w3.org/2000/svg">
  <path d="M0.78258 31.2763C3.50221 37.9806 10.6773 41.15 20.0017 39.5997L20.6965 39.481L20.1223 39.1442C16.5491 36.8418 14.3539 34.6887 11.9788 30.5834L9.79694 26.7059C8.05532 23.6629 5.53283 22.4533 2.7424 23.5863C0.0399963 24.683 -0.769573 27.4447 0.78258 31.2744V31.2763Z" fill="#ffffff"/>
  <path d="M41.3442 8.71187C38.6246 2.00756 31.4494 -1.16182 22.125 0.386509L21.4303 0.505169L22.0045 0.842011C25.5777 3.1444 27.7729 5.29751 30.148 9.40278L32.3298 13.2803C34.0714 16.3234 36.5939 17.5329 39.3844 16.3999C42.0868 15.3033 42.8963 12.5415 41.3442 8.71187Z" fill="#ffffff"/>
  <path fill-rule="evenodd" clip-rule="evenodd" d="M32.7779 27.7935C28.6784 23.5064 27.553 21.8413 24.4545 17.5887C21.3559 13.359 15.8134 5.69778 12.8488 3.43175C11.865 2.72553 10.9138 2.09395 9.5856 1.62122C7.75976 0.972419 5.71192 1.49682 4.34732 3.87003L1.05164 9.45472C3.81335 8.50352 6.90235 9.65376 9.39613 12.1973C13.4956 16.4844 14.621 18.1495 17.7196 22.4021C20.8181 26.6318 26.3607 34.293 29.3253 36.559C30.309 37.2652 31.2602 37.8968 32.5884 38.3695C34.4143 39.0184 36.4621 38.4939 37.8267 36.1207L41.1224 30.5361C38.3607 31.4873 35.2717 30.337 32.7779 27.7935Z" fill="#ffffff"/>
</svg>

